<svg version="1.1" id="svgLogiLu" xml:space="preserve" width="248" height="74" viewBox="0 0 643.1333 192.09332"
     xmlns="http://www.w3.org/2000/svg" xmlns:svg="http://www.w3.org/2000/svg">
                                <defs></defs>
  <g transform="matrix(1.3333333,0,0,-1.3333333,0,192.09333)">
                                    <g transform="scale(0.1)">
                                        <path class="logoText"
                                              d="M 1792.99,126.238 H 1559.41 V 641.805 H 1417.32 V 10.9883 h 375.67 z m 590.14,515.567 H 2241.04 V 270.531 c 0,-98.543 -39.15,-147.812 -117.45,-147.812 -79.78,0 -119.66,51.031 -119.66,153.09 V 641.805 H 1861.41 V 277.57 c 0,-185.0505 85.63,-277.5817188 256.9,-277.5817188 176.54,0 264.82,94.7305188 264.82,284.1837188 z m 610.26,-515.567 h -317.16 l 316.28,435.942 v 79.625 H 2508.63 V 526.109 h 300.01 L 2485.31,92.8086 V 10.9883 h 508.08 z m 506.14,0 h -236.22 v 144.293 h 206.31 v 115.25 h -206.31 v 140.328 h 221.7 V 641.805 H 3121.22 V 10.9883 h 378.31 z m 556.21,71.274 c -6.16,9.668 -12.98,19.566 -20.46,29.687 -7.48,10.121 -15.33,19.582 -23.53,28.371 -8.22,8.801 -16.72,16.5 -25.52,23.102 -8.8,6.598 -17.89,11.359 -27.27,14.289 v 1.758 c 21.4,6.16 40.83,14.66 58.28,25.519 17.45,10.84 32.34,23.75 44.65,38.711 12.32,14.961 21.85,31.742 28.6,50.371 6.74,18.621 10.11,38.93 10.11,60.922 0,114.375 -76.54,171.563 -229.62,171.563 H 3645.75 V 10.9883 h 142.09 V 252.488 h 38.27 c 8.8,0 16.94,-1.828 24.41,-5.488 7.48,-3.68 14.66,-8.949 21.56,-15.84 6.89,-6.89 13.7,-15.18 20.45,-24.859 6.75,-9.672 13.78,-20.672 21.12,-32.992 l 98.1,-162.3207 h 163.2 z m -203.68,337.836 c 65.99,0 98.98,-27.571 98.98,-82.7 0,-26.398 -9.39,-48.539 -28.15,-66.429 -18.48,-17.59 -42.97,-26.391 -73.47,-26.391 h -61.58 v 175.52 z m 971.39,106.457 H 4689.28 V 292.961 c 0,-43.109 1.17,-71.992 3.52,-86.66 h -1.76 c -9.68,17.008 -20.23,34.168 -31.67,51.469 l -250.3,384.035 H 4255.98 V 10.9883 h 134.17 V 357.629 c 0,45.75 -1.17,79.762 -3.52,102.055 h 1.76 c 5.87,-11.731 16.42,-29.184 31.68,-52.344 L 4680.04,10.9883 h 143.41 V 641.805"
                                              style="fill: #ffff;fill-opacity:1;fill-rule:nonzero;stroke:none"></path>
                                      <path class="logoText"
                                            d="m 1566.89,1127.45 270.54,302.65 h -91.94 L 1509.7,1155.16 c -7.04,-7.92 -12.61,-15.11 -16.71,-21.55 h -1.76 v 296.49 h -73.91 V 799.285 h 73.91 v 310.565 h 1.76 c 2.04,-3.81 7.62,-11.15 16.71,-21.99 l 243.7,-288.575 h 102.94 z m 629.05,302.65 H 2119.4 L 1877.46,799.285 h 82.26 l 62.9,176.84 h 267.46 l 66.86,-176.84 h 81.82 z m -148.68,-387.55 98.09,268.77 c 3.81,10.27 7.18,24.34 10.12,42.23 h 1.76 c 3.22,-19.35 6.45,-33.42 9.68,-42.23 l 98.97,-268.77 z m 992.84,387.55 h -73.9 V 985.801 c 0,-43.699 1.46,-74.637 4.4,-92.817 h -1.76 c -3.82,7.621 -12.32,21.7 -25.52,42.231 L 2627.48,1430.1 h -95.9 V 799.285 h 73.9 v 455.735 c 0,44.28 -1.17,73.17 -3.52,86.66 h 2.64 c 5.28,-13.79 12.03,-26.99 20.24,-39.59 l 324.64,-502.805 h 90.62 z m 530.45,0 h -437.69 v -66.87 h 181.67 V 799.285 h 73.91 v 563.945 h 182.11 z m 538.5,-551.631 c 54.55,59.824 81.82,141.211 81.82,244.141 0,94.72 -26.61,171.41 -79.84,230.07 -53.23,58.65 -123.39,87.98 -210.49,87.98 -94.43,0 -169.07,-30.21 -223.91,-90.62 -54.84,-60.42 -82.26,-141.36 -82.26,-242.83 0,-94.43 26.9,-171.116 80.72,-230.062 53.81,-58.949 125.44,-88.421 214.89,-88.421 91.5,0 164.52,29.914 219.07,89.742 z m -53.67,427.141 c 38.71,-45.47 58.07,-109.83 58.07,-193.12 0,-81.24 -19.95,-144.435 -59.83,-189.592 -39.88,-45.168 -94.43,-67.746 -163.64,-67.746 -64.81,0 -117.38,23.68 -157.7,71.043 -40.33,47.36 -60.49,109.895 -60.49,187.615 0,77.71 20.68,140.47 62.03,188.28 41.35,47.8 95.16,71.7 161.44,71.7 68.03,0 121.41,-22.73 160.12,-68.18 z m 768.06,124.49 h -73.9 V 985.801 c 0,-43.699 1.46,-74.637 4.4,-92.817 h -1.76 c -3.82,7.621 -12.32,21.7 -25.51,42.231 L 4410.82,1430.1 h -95.9 V 799.285 h 73.9 v 455.735 c 0,44.28 -1.17,73.17 -3.51,86.66 h 2.64 c 5.27,-13.79 12.02,-26.99 20.23,-39.59 l 324.64,-502.805 h 90.62 V 1430.1"
                                            style="fill: #ffff;fill-opacity:1;fill-rule:nonzero;stroke:none"></path>
                                      <path d="M 0,1429.63 V 12.3008 H 708.668 V 1429.63 H 0"
                                            style="fill:#009FE3; fill-opacity:1; fill-rule:nonzero; stroke:none"></path>
                                    </g>
                                </g>
</svg>
